REM DIRINDEX 1\2,1\3,1\4,1\5,1\6
REM DIRNAME "folder01","folder02","folder03","folder04","folder05","folder06"
TITLE ""
FILE "Disc3Track41.mp3" MP3
  TRACK 01 AUDIO
    TITLE "3:cjc161_05319"
    INDEX 01 00:00:00
  TRACK 02 AUDIO
    TITLE "4:cjc161_05320"
    INDEX 01 00:01:00
  TRACK 03 AUDIO
    TITLE "5:cjc161_05321"
    INDEX 01 00:03:63
  TRACK 04 AUDIO
    TITLE "6:cjc161_05322"
    INDEX 01 00:05:02
  TRACK 05 AUDIO
    TITLE "0:"
    INDEX 01 00:06:56
  TRACK 06 AUDIO
    TITLE "3:cjc161_05323"
    INDEX 01 00:07:14
  TRACK 07 AUDIO
    TITLE "4:cjc161_05324"
    INDEX 01 00:08:37
  TRACK 08 AUDIO
    TITLE "5:cjc161_05325"
    INDEX 01 00:10:19
  TRACK 09 AUDIO
    TITLE "6:cjc161_05326"
    INDEX 01 00:11:41
  TRACK 10 AUDIO
    TITLE "0:"
    INDEX 01 00:15:16
  TRACK 11 AUDIO
    TITLE "3:cjc161_05327"
    INDEX 01 00:15:47
  TRACK 12 AUDIO
    TITLE "4:cjc161_05328"
    INDEX 01 00:17:01
  TRACK 13 AUDIO
    TITLE "5:cjc161_05329"
    INDEX 01 00:18:28
  TRACK 14 AUDIO
    TITLE "0:"
    INDEX 01 00:19:57
  TRACK 15 AUDIO
    TITLE "3:cjc161_05330"
    INDEX 01 00:20:23
  TRACK 16 AUDIO
    TITLE "4:cjc161_05331"
    INDEX 01 00:21:44
  TRACK 17 AUDIO
    TITLE "5:cjc161_05332"
    INDEX 01 00:25:04
  TRACK 18 AUDIO
    TITLE "6:cjc161_05333"
    INDEX 01 00:26:21
  TRACK 19 AUDIO
    TITLE "0:"
    INDEX 01 00:28:46
  TRACK 20 AUDIO
    TITLE "3:cjc161_05334"
    INDEX 01 00:29:12
  TRACK 21 AUDIO
    TITLE "4:cjc161_05335"
    INDEX 01 00:30:37
  TRACK 22 AUDIO
    TITLE "5:cjc161_05336"
    INDEX 01 00:33:08
  TRACK 23 AUDIO
    TITLE "0:"
    INDEX 01 00:34:33
  TRACK 24 AUDIO
    TITLE "3:cjc161_05337"
    INDEX 01 00:34:64
  TRACK 25 AUDIO
    TITLE "4:cjc161_05338"
    INDEX 01 00:36:24
  TRACK 26 AUDIO
    TITLE "5:cjc161_05339"
    INDEX 01 00:37:58
  TRACK 27 AUDIO
    TITLE "6:cjc161_05340"
    INDEX 01 00:39:18
  TRACK 28 AUDIO
    TITLE "0:"
    INDEX 01 00:43:26
  TRACK 29 AUDIO
    TITLE "3:cjc161_05341"
    INDEX 01 00:43:57
  TRACK 30 AUDIO
    TITLE "4:cjc161_05342"
    INDEX 01 00:45:34
  TRACK 31 AUDIO
    TITLE "5:cjc161_05343"
    INDEX 01 00:46:46
  TRACK 32 AUDIO
    TITLE "0:"
    INDEX 01 00:48:25
  TRACK 33 AUDIO
    TITLE "3:cjc161_05344"
    INDEX 01 00:48:64
  TRACK 34 AUDIO
    TITLE "4:cjc161_05345"
    INDEX 01 00:50:06
  TRACK 35 AUDIO
    TITLE "5:cjc161_05346"
    INDEX 01 00:52:40
  TRACK 36 AUDIO
    TITLE "6:cjc161_05347"
    INDEX 01 00:53:54
  TRACK 37 AUDIO
    TITLE "0:"
    INDEX 01 00:56:70
  TRACK 38 AUDIO
    TITLE "3:cjc161_05348"
    INDEX 01 00:57:26
  TRACK 39 AUDIO
    TITLE "4:cjc161_05349"
    INDEX 01 00:58:49
  TRACK 40 AUDIO
    TITLE "5:cjc161_05350"
    INDEX 01 00:59:50
  TRACK 41 AUDIO
    TITLE "0:"
    INDEX 01 01:00:73
  TRACK 42 AUDIO
    TITLE "3:cjc161_05351"
    INDEX 01 01:01:33
  TRACK 43 AUDIO
    TITLE "4:cjc161_05352"
    INDEX 01 01:02:54
  TRACK 44 AUDIO
    TITLE "5:cjc161_05353"
    INDEX 01 01:04:14
  TRACK 45 AUDIO
    TITLE "6:cjc161_05354"
    INDEX 01 01:05:37
  TRACK 46 AUDIO
    TITLE "0:"
    INDEX 01 01:08:32
  TRACK 47 AUDIO
    TITLE "3:cjc161_05355"
    INDEX 01 01:08:63
  TRACK 48 AUDIO
    TITLE "4:cjc161_05356"
    INDEX 01 01:10:23
  TRACK 49 AUDIO
    TITLE "5:cjc161_05357"
    INDEX 01 01:11:40
  TRACK 50 AUDIO
    TITLE "0:"
    INDEX 01 01:13:01
  TRACK 51 AUDIO
    TITLE "3:cjc161_05358"
    INDEX 01 01:13:33
  TRACK 52 AUDIO
    TITLE "4:cjc161_05359"
    INDEX 01 01:14:69
  TRACK 53 AUDIO
    TITLE "5:cjc161_05360"
    INDEX 01 01:16:00
  TRACK 54 AUDIO
    TITLE "0:"
    INDEX 01 01:17:38
  TRACK 55 AUDIO
    TITLE "3:cjc161_05361"
    INDEX 01 01:18:06
  TRACK 56 AUDIO
    TITLE "4:cjc161_05362"
    INDEX 01 01:19:31
  TRACK 57 AUDIO
    TITLE "5:cjc161_05363"
    INDEX 01 01:20:39
  TRACK 58 AUDIO
    TITLE "6:cjc161_05364"
    INDEX 01 01:21:64
  TRACK 59 AUDIO
    TITLE "0:"
    INDEX 01 01:24:48
  TRACK 60 AUDIO
    TITLE "3:cjc161_05365"
    INDEX 01 01:25:03
  TRACK 61 AUDIO
    TITLE "4:cjc161_05366"
    INDEX 01 01:26:20
  TRACK 62 AUDIO
    TITLE "5:cjc161_05367"
    INDEX 01 01:28:73
  TRACK 63 AUDIO
    TITLE "6:cjc161_05368"
    INDEX 01 01:30:14
  TRACK 64 AUDIO
    TITLE "0:"
    INDEX 01 01:34:07
  TRACK 65 AUDIO
    TITLE "3:cjc161_05369"
    INDEX 01 01:34:39
  TRACK 66 AUDIO
    TITLE "4:cjc161_05370"
    INDEX 01 01:35:64
  TRACK 67 AUDIO
    TITLE "5:cjc161_05371"
    INDEX 01 01:37:49
  TRACK 68 AUDIO
    TITLE "6:cjc161_05372"
    INDEX 01 01:38:72
  TRACK 69 AUDIO
    TITLE "0:"
    INDEX 01 01:42:68
  TRACK 70 AUDIO
    TITLE "3:cjc161_05373"
    INDEX 01 01:43:26
  TRACK 71 AUDIO
    TITLE "4:cjc161_05374"
    INDEX 01 01:44:55
  TRACK 72 AUDIO
    TITLE "5:cjc161_05375"
    INDEX 01 01:46:32
  TRACK 73 AUDIO
    TITLE "0:"
    INDEX 01 01:47:63
  TRACK 74 AUDIO
    TITLE "3:cjc161_05376"
    INDEX 01 01:48:19
  TRACK 75 AUDIO
    TITLE "4:cjc161_05377"
    INDEX 01 01:49:52
  TRACK 76 AUDIO
    TITLE "5:cjc161_05378"
    INDEX 01 01:52:70
  TRACK 77 AUDIO
    TITLE "6:cjc161_05379"
    INDEX 01 01:54:28
  TRACK 78 AUDIO
    TITLE "0:"
    INDEX 01 01:56:68
  TRACK 79 AUDIO
    TITLE "3:cjc161_05380"
    INDEX 01 01:57:26
  TRACK 80 AUDIO
    TITLE "4:cjc161_05381"
    INDEX 01 01:58:43
  TRACK 81 AUDIO
    TITLE "5:cjc161_05382"
    INDEX 01 01:59:45
  TRACK 82 AUDIO
    TITLE "0:"
    INDEX 01 02:00:64
  TRACK 83 AUDIO
    TITLE "3:cjc161_05383"
    INDEX 01 02:01:26
  TRACK 84 AUDIO
    TITLE "4:cjc161_05384"
    INDEX 01 02:02:59
  TRACK 85 AUDIO
    TITLE "5:cjc161_05385"
    INDEX 01 02:04:14
  TRACK 86 AUDIO
    TITLE "0:"
    INDEX 01 02:05:49
  TRACK 87 AUDIO
    TITLE "3:cjc161_05386"
    INDEX 01 02:06:11
  TRACK 88 AUDIO
    TITLE "4:cjc161_05387"
    INDEX 01 02:07:28
  TRACK 89 AUDIO
    TITLE "5:cjc161_05388"
    INDEX 01 02:08:42
  TRACK 90 AUDIO
    TITLE "0:"
    INDEX 01 02:09:61
